<?xml version="1.0" encoding="UTF-8"?>
<svg xmlns="http://www.w3.org/2000/svg" xmlns:xlink="http://www.w3.org/1999/xlink" width="218pt" height="177pt" viewBox="0 0 218 177" version="1.1">
<defs>
<g>
<symbol overflow="visible" id="glyph0-0">
<path style="stroke:none;" d=""/>
</symbol>
<symbol overflow="visible" id="glyph0-1">
<path style="stroke:none;" d="M 0.515625 1.515625 C 0.4375 1.875 0.375 1.96875 -0.109375 1.96875 C -0.25 1.96875 -0.375 1.96875 -0.375 2.203125 C -0.375 2.21875 -0.359375 2.3125 -0.234375 2.3125 C -0.078125 2.3125 0.09375 2.296875 0.25 2.296875 L 0.765625 2.296875 C 1.015625 2.296875 1.625 2.3125 1.875 2.3125 C 1.953125 2.3125 2.09375 2.3125 2.09375 2.109375 C 2.09375 1.96875 2.015625 1.96875 1.8125 1.96875 C 1.25 1.96875 1.21875 1.890625 1.21875 1.796875 C 1.21875 1.65625 1.75 -0.40625 1.828125 -0.6875 C 1.953125 -0.34375 2.28125 0.125 2.90625 0.125 C 4.25 0.125 5.71875 -1.640625 5.71875 -3.390625 C 5.71875 -4.5 5.09375 -5.265625 4.203125 -5.265625 C 3.4375 -5.265625 2.78125 -4.53125 2.65625 -4.359375 C 2.5625 -4.953125 2.09375 -5.265625 1.609375 -5.265625 C 1.265625 -5.265625 0.984375 -5.109375 0.765625 -4.65625 C 0.546875 -4.21875 0.375 -3.484375 0.375 -3.4375 C 0.375 -3.390625 0.4375 -3.328125 0.515625 -3.328125 C 0.609375 -3.328125 0.625 -3.34375 0.6875 -3.625 C 0.875 -4.328125 1.09375 -5.03125 1.578125 -5.03125 C 1.859375 -5.03125 1.953125 -4.84375 1.953125 -4.484375 C 1.953125 -4.203125 1.90625 -4.078125 1.859375 -3.859375 Z M 2.578125 -3.734375 C 2.671875 -4.0625 3 -4.40625 3.1875 -4.578125 C 3.328125 -4.703125 3.71875 -5.03125 4.171875 -5.03125 C 4.703125 -5.03125 4.9375 -4.5 4.9375 -3.890625 C 4.9375 -3.3125 4.609375 -1.953125 4.296875 -1.34375 C 4 -0.6875 3.453125 -0.125 2.90625 -0.125 C 2.09375 -0.125 1.953125 -1.140625 1.953125 -1.1875 C 1.953125 -1.234375 1.984375 -1.328125 2 -1.390625 Z M 2.578125 -3.734375 "/>
</symbol>
<symbol overflow="visible" id="glyph0-2">
<path style="stroke:none;" d="M 5.265625 -5.15625 C 5.265625 -5.21875 5.21875 -5.265625 5.15625 -5.265625 C 5.0625 -5.265625 4.609375 -4.828125 4.375 -4.40625 C 4.15625 -4.953125 3.796875 -5.265625 3.28125 -5.265625 C 1.921875 -5.265625 0.46875 -3.53125 0.46875 -1.75 C 0.46875 -0.578125 1.15625 0.125 1.96875 0.125 C 2.609375 0.125 3.125 -0.359375 3.375 -0.640625 L 3.390625 -0.625 L 2.9375 1.171875 L 2.828125 1.609375 C 2.71875 1.953125 2.546875 1.953125 1.984375 1.96875 C 1.859375 1.96875 1.734375 1.96875 1.734375 2.203125 C 1.734375 2.28125 1.8125 2.3125 1.890625 2.3125 C 2.0625 2.3125 2.265625 2.296875 2.4375 2.296875 L 3.65625 2.296875 C 3.84375 2.296875 4.046875 2.3125 4.21875 2.3125 C 4.296875 2.3125 4.4375 2.3125 4.4375 2.09375 C 4.4375 1.96875 4.34375 1.96875 4.15625 1.96875 C 3.59375 1.96875 3.5625 1.890625 3.5625 1.796875 C 3.5625 1.734375 3.578125 1.71875 3.609375 1.5625 Z M 3.578125 -1.421875 C 3.53125 -1.21875 3.53125 -1.1875 3.359375 -0.96875 C 3.09375 -0.640625 2.5625 -0.125 2.015625 -0.125 C 1.515625 -0.125 1.25 -0.5625 1.25 -1.265625 C 1.25 -1.921875 1.609375 -3.265625 1.84375 -3.765625 C 2.25 -4.609375 2.8125 -5.03125 3.28125 -5.03125 C 4.0625 -5.03125 4.21875 -4.046875 4.21875 -3.953125 C 4.21875 -3.9375 4.1875 -3.796875 4.171875 -3.765625 Z M 3.578125 -1.421875 "/>
</symbol>
<symbol overflow="visible" id="glyph0-3">
<path style="stroke:none;" d="M 4.65625 -4.890625 C 4.28125 -4.8125 4.09375 -4.546875 4.09375 -4.296875 C 4.09375 -4 4.3125 -3.90625 4.484375 -3.90625 C 4.8125 -3.90625 5.09375 -4.203125 5.09375 -4.546875 C 5.09375 -4.9375 4.71875 -5.265625 4.125 -5.265625 C 3.640625 -5.265625 3.09375 -5.0625 2.59375 -4.328125 C 2.515625 -4.953125 2.03125 -5.265625 1.546875 -5.265625 C 1.09375 -5.265625 0.84375 -4.90625 0.703125 -4.65625 C 0.5 -4.21875 0.328125 -3.5 0.328125 -3.4375 C 0.328125 -3.390625 0.375 -3.328125 0.453125 -3.328125 C 0.546875 -3.328125 0.5625 -3.34375 0.640625 -3.625 C 0.8125 -4.34375 1.046875 -5.03125 1.515625 -5.03125 C 1.8125 -5.03125 1.890625 -4.828125 1.890625 -4.484375 C 1.890625 -4.21875 1.765625 -3.75 1.6875 -3.375 L 1.34375 -2.09375 C 1.296875 -1.859375 1.171875 -1.328125 1.109375 -1.109375 C 1.03125 -0.796875 0.890625 -0.234375 0.890625 -0.171875 C 0.890625 -0.015625 1.03125 0.125 1.203125 0.125 C 1.34375 0.125 1.5625 0.03125 1.640625 -0.203125 C 1.671875 -0.296875 2.109375 -2.109375 2.1875 -2.375 C 2.25 -2.640625 2.3125 -2.890625 2.375 -3.15625 C 2.421875 -3.328125 2.46875 -3.515625 2.515625 -3.671875 C 2.546875 -3.78125 2.875 -4.359375 3.171875 -4.625 C 3.3125 -4.75 3.625 -5.03125 4.109375 -5.03125 C 4.296875 -5.03125 4.5 -5 4.65625 -4.890625 Z M 4.65625 -4.890625 "/>
</symbol>
<symbol overflow="visible" id="glyph0-4">
<path style="stroke:none;" d="M 2.71875 -2.390625 C 2.921875 -2.359375 3.25 -2.28125 3.328125 -2.265625 C 3.484375 -2.21875 4.015625 -2.03125 4.015625 -1.453125 C 4.015625 -1.09375 3.6875 -0.125 2.296875 -0.125 C 2.046875 -0.125 1.140625 -0.15625 0.90625 -0.8125 C 1.390625 -0.75 1.625 -1.125 1.625 -1.390625 C 1.625 -1.640625 1.453125 -1.765625 1.21875 -1.765625 C 0.953125 -1.765625 0.609375 -1.5625 0.609375 -1.03125 C 0.609375 -0.328125 1.328125 0.125 2.28125 0.125 C 4.09375 0.125 4.640625 -1.21875 4.640625 -1.84375 C 4.640625 -2.015625 4.640625 -2.359375 4.25 -2.734375 C 3.953125 -3.03125 3.671875 -3.078125 3.03125 -3.21875 C 2.703125 -3.28125 2.1875 -3.390625 2.1875 -3.9375 C 2.1875 -4.171875 2.40625 -5.03125 3.53125 -5.03125 C 4.046875 -5.03125 4.53125 -4.84375 4.65625 -4.40625 C 4.125 -4.40625 4.09375 -3.953125 4.09375 -3.9375 C 4.09375 -3.6875 4.328125 -3.625 4.4375 -3.625 C 4.609375 -3.625 4.9375 -3.75 4.9375 -4.25 C 4.9375 -4.75 4.484375 -5.265625 3.546875 -5.265625 C 1.984375 -5.265625 1.5625 -4.046875 1.5625 -3.546875 C 1.5625 -2.640625 2.453125 -2.453125 2.71875 -2.390625 Z M 2.71875 -2.390625 "/>
</symbol>
</g>
</defs>
<g id="surface6378">
<path style="fill-rule:evenodd;fill:rgb(82.7%,82.7%,82.7%);fill-opacity:1;stroke-width:0.4;stroke-linecap:butt;stroke-linejoin:round;stroke:rgb(0%,0%,0%);stroke-opacity:1;stroke-miterlimit:10;" d="M 182.703125 651.402344 L 86.703125 651.402344 L 86.703125 695.160156 L 97.773438 703.890625 L 100.164063 713.074219 L 100.164063 730.644531 L 86.703125 747.402344 L 182.703125 747.402344 L 182.703125 700.929688 L 166.457031 683.523438 Z M 182.703125 651.402344 " transform="matrix(1,0,0,-1,-22,812)"/>
<path style=" stroke:none;fill-rule:evenodd;fill:rgb(0%,0%,0%);fill-opacity:1;" d="M 18.503906 160.601563 C 18.503906 158.203125 14.90625 158.203125 14.90625 160.601563 C 14.90625 163.003906 18.503906 163.003906 18.503906 160.601563 Z M 18.503906 160.601563 "/>
<path style=" stroke:none;fill-rule:evenodd;fill:rgb(0%,0%,0%);fill-opacity:1;" d="M 210.503906 160.601563 C 210.503906 158.203125 206.90625 158.203125 206.90625 160.601563 C 206.90625 163.003906 210.503906 163.003906 210.503906 160.601563 Z M 210.503906 160.601563 "/>
<path style="fill:none;stroke-width:0.4;stroke-linecap:round;stroke-linejoin:round;stroke:rgb(0%,0%,0%);stroke-opacity:1;stroke-miterlimit:10;" d="M 38.703125 651.398438 L 230.703125 651.398438 " transform="matrix(1,0,0,-1,-22,812)"/>
<path style=" stroke:none;fill-rule:evenodd;fill:rgb(0%,0%,0%);fill-opacity:1;" d="M 18.503906 112.601563 C 18.503906 110.203125 14.90625 110.203125 14.90625 112.601563 C 14.90625 115.003906 18.503906 115.003906 18.503906 112.601563 Z M 18.503906 112.601563 "/>
<path style=" stroke:none;fill-rule:evenodd;fill:rgb(0%,0%,0%);fill-opacity:1;" d="M 114.503906 16.601563 C 114.503906 14.203125 110.90625 14.203125 110.90625 16.601563 C 110.90625 19.003906 114.503906 19.003906 114.503906 16.601563 Z M 114.503906 16.601563 "/>
<path style="fill:none;stroke-width:0.4;stroke-linecap:round;stroke-linejoin:round;stroke:rgb(0%,0%,0%);stroke-opacity:1;stroke-miterlimit:10;" d="M 38.703125 699.398438 L 134.703125 795.398438 " transform="matrix(1,0,0,-1,-22,812)"/>
<path style="fill:none;stroke-width:0.4;stroke-linecap:butt;stroke-linejoin:round;stroke:rgb(0%,0%,0%);stroke-opacity:1;stroke-miterlimit:10;" d="M 134.703125 795.398438 L 230.703125 651.398438 " transform="matrix(1,0,0,-1,-22,812)"/>
<path style="fill:none;stroke-width:0.4;stroke-linecap:butt;stroke-linejoin:round;stroke:rgb(0%,0%,0%);stroke-opacity:1;stroke-miterlimit:10;" d="M 38.703125 651.398438 L 38.703125 699.398438 " transform="matrix(1,0,0,-1,-22,812)"/>
<path style="fill:none;stroke-width:1.2;stroke-linecap:butt;stroke-linejoin:round;stroke:rgb(100%,0%,0%);stroke-opacity:1;stroke-miterlimit:10;" d="M 166.707031 747.398438 L 182.703125 723.398438 " transform="matrix(1,0,0,-1,-22,812)"/>
<g style="fill:rgb(0%,0%,0%);fill-opacity:1;">
  <use xlink:href="#glyph0-1" x="6.586602" y="173.145997"/>
</g>
<g style="fill:rgb(0%,0%,0%);fill-opacity:1;">
  <use xlink:href="#glyph0-2" x="1.660601" y="104.042201"/>
</g>
<g style="fill:rgb(0%,0%,0%);fill-opacity:1;">
  <use xlink:href="#glyph0-3" x="111.622001" y="6.474601"/>
</g>
<g style="fill:rgb(0%,0%,0%);fill-opacity:1;">
  <use xlink:href="#glyph0-4" x="211.193802" y="171.649197"/>
</g>
<path style="fill:none;stroke-width:1.2;stroke-linecap:round;stroke-linejoin:round;stroke:rgb(100%,0%,0%);stroke-opacity:1;stroke-miterlimit:10;" d="M 86.703125 651.398438 L 182.703125 651.398438 " transform="matrix(1,0,0,-1,-22,812)"/>
</g>
</svg>
